/* XPM */
static char * back_xpm[] = {
"24 24 5 1",
" 	c None",
".	c #808080",
"+	c #FFFF00",
"@	c #000000",
"#	c #E0E000",
"                        ",
"                        ",
"   .....         ...    ",
"   .+++.@       .#+.@   ",
"   .+++.@      .#++.@   ",
"   .+++.@     .#+++.@   ",
"   .+++.@    .#++++.@   ",
"   .+++.@   .#+++++.@   ",
"   .+++.@  .#++++++.@   ",
"   .+++.@ .#+++++++.@   ",
"   .+++.@.#++++++++.@   ",
"   .+++..#+++++++++.@   ",
"   .+++..#+++++++++.@   ",
"   .+++.@.#++++++++.@   ",
"   .+++.@ .#+++++++.@   ",
"   .+++.@  .#++++++.@   ",
"   .+++.@   .#+++++.@   ",
"   .+++.@    .#++++.@   ",
"   .+++.@     .#+++.@   ",
"   .+++.@      .#++.@   ",
"   .+++.@       .#+.@   ",
"   .....@        ...@   ",
"    @@@@@         @@@   ",
"                        "};
