/* XPM */
static char * birdseye_view_xpm[] = {
"24 24 64 1",
" 	c None",
".	c #110A05",
"+	c #677E8C",
"@	c #BFB7A7",
"#	c #A6823F",
"$	c #414337",
"%	c #D7D3C9",
"&	c #889699",
"*	c #7A562C",
"=	c #897E70",
"-	c #A79C8D",
";	c #708693",
">	c #745E34",
",	c #CA9C5A",
"'	c #30281E",
")	c #F2BA74",
"!	c #F1E4D9",
"~	c #B0B0AE",
"{	c #777D75",
"]	c #5E523A",
"^	c #C2C6CC",
"/	c #E6D5CC",
"(	c #836B42",
"_	c #1B1911",
":	c #69828D",
"<	c #C7B8A7",
"[	c #BBAE9F",
"}	c #150F0A",
"|	c #61716F",
"1	c #AD722F",
"2	c #99A19E",
"3	c #B5A48E",
"4	c #79888C",
"5	c #BB924A",
"6	c #C2B19F",
"7	c #363B37",
"8	c #DACCC0",
"9	c #424E48",
"0	c #826432",
"a	c #606660",
"b	c #8F7547",
"c	c #988A6C",
"d	c #AA967F",
"e	c #9A988A",
"f	c #BA7E34",
"g	c #7C755F",
"h	c #8F6221",
"i	c #313126",
"j	c #9E825C",
"k	c #463820",
"l	c #D89C58",
"m	c #727267",
"n	c #C1C0BC",
"o	c #4F5245",
"p	c #6E685C",
"q	c #A8A499",
"r	c #EBDCD3",
"s	c #CCC0B2",
"t	c #68532D",
"u	c #222119",
"v	c #768285",
"w	c #BA8A44",
"x	c #E1D5CC",
"y	c #D2CAC0",
"++++++++++++++++++++++++",
"+++++++++4&&&++::+++++++",
"++++:+4~rrrr/%@&:::+++++",
"+++++2xrrr!rxx8n~4::+++:",
"+++vn!!r/r8<@y<3dg{:::::",
"++4y!ry[3d(]'k$]b5,cv:::",
"++^!rs[3-[tk]]t>(,1l,=v:",
":2rrx<[[[3d0ttbb#5,)l1g:",
";%//y[666[-(>(##5w,wf10v",
"2x/xs6[@6[63jgtt000hhh*{",
"~x88ss@@6[-=p]$i'oa]ott4",
"nxrxxys<6<cmgg]io:;;;va;",
"yrrx8s<yy[--gmo$;;;;;;{;",
"rr!rrrxx<6@em{9|;;;;;;;;",
"rr!r!!r8s[[qe=9v:;;;;;;;",
"rr!!!!!rr8s@-em{;;;;;;;;",
"x!!r!!!xy%8y~q&|;;;;;;;;",
"-~n=qyr[q[yn~2em{;;;;;;;",
"g'u_}][''p~eqm2vav;;;;;;",
"}}}}}}}}}u$ui_o{7a;;;;;;",
"}...}}.}}}}....i}7:;:;;;",
"}.}.}..}}}...}....$;;;;;",
"..}__}}}}}}}.}}}}}}i|;;;",
"}}}}...}.}}}}}.}_}}}_9v;"};
