/* XPM */
static char * blockdev_xpm[] = {
"32 32 219 2",
"  	c None",
". 	c #020204",
"+ 	c #82DE5C",
"@ 	c #7EDA54",
"# 	c #72D64C",
"$ 	c #96EA6C",
"% 	c #8EE664",
"& 	c #6AD244",
"* 	c #5ECA34",
"= 	c #A2EA7C",
"- 	c #9AEA74",
"; 	c #92E664",
"> 	c #8AE264",
", 	c #66CE3C",
"' 	c #5ACA34",
") 	c #AEF684",
"! 	c #AAF27C",
"~ 	c #A2EE7C",
"{ 	c #7EDE54",
"] 	c #76DA4C",
"^ 	c #429A24",
"/ 	c #B6FA8C",
"( 	c #B2FA8C",
"_ 	c #A6F27C",
": 	c #9EEE74",
"< 	c #7ADA54",
"[ 	c #3E9224",
"} 	c #1A4E0A",
"| 	c #92E66C",
"1 	c #469624",
"2 	c #1E5A0C",
"3 	c #A2B2F4",
"4 	c #9AA6F4",
"5 	c #96A6F4",
"6 	c #42CA04",
"7 	c #62DE34",
"8 	c #4A9E2C",
"9 	c #225E0C",
"0 	c #164E0C",
"a 	c #AABAF4",
"b 	c #9EAEF4",
"c 	c #96A2F4",
"d 	c #929EF4",
"e 	c #8A96F4",
"f 	c #8692F4",
"g 	c #42CE04",
"h 	c #66DE3C",
"i 	c #56A634",
"j 	c #2A721C",
"k 	c #266614",
"l 	c #0E3E04",
"m 	c #AEC2FC",
"n 	c #828AEC",
"o 	c #7E86EC",
"p 	c #7A82EC",
"q 	c #3EC604",
"r 	c #3ABA04",
"s 	c #AAF684",
"t 	c #5AB234",
"u 	c #2E7614",
"v 	c #2A6E14",
"w 	c #BED2FC",
"x 	c #B6C6FC",
"y 	c #A6B6F4",
"z 	c #9AAAF4",
"A 	c #8E9AF4",
"B 	c #3252AC",
"C 	c #3EBE04",
"D 	c #36B204",
"E 	c #32A604",
"F 	c #2A9604",
"G 	c #2E920C",
"H 	c #327A1C",
"I 	c #C2D6FC",
"J 	c #B6CAFC",
"K 	c #3A5EBC",
"L 	c #0642A4",
"M 	c #3ECA04",
"N 	c #B2A26C",
"O 	c #2A9204",
"P 	c #228604",
"Q 	c #2E8E0C",
"R 	c #266E0C",
"S 	c #B2C2FC",
"T 	c #3E6ED4",
"U 	c #064AB4",
"V 	c #06429C",
"W 	c #F6DEA4",
"X 	c #E2D284",
"Y 	c #E2BE6C",
"Z 	c #8E923C",
"` 	c #2A8A0C",
" .	c #22761C",
"..	c #1E6204",
"+.	c #629EFC",
"@.	c #8AB6FC",
"#.	c #AEBEF4",
"$.	c #4676DC",
"%.	c #064EC4",
"&.	c #0646AC",
"*.	c #063E94",
"=.	c #36AE04",
"-.	c #2E9E04",
";.	c #EEEABC",
">.	c #EEDA94",
",.	c #E2CE7C",
"'.	c #DAC26C",
").	c #D6BA54",
"!.	c #C2A244",
"~.	c #8A8624",
"{.	c #8EBEFC",
"].	c #467AE4",
"^.	c #0256D4",
"/.	c #064EBC",
"(.	c #FEF6D4",
"_.	c #FEEABC",
":.	c #D6C26C",
"<.	c #CEB64C",
"[.	c #C2AE3C",
"}.	c #BEA224",
"|.	c #D2AE1C",
"1.	c #5A624C",
"2.	c #5E9AF4",
"3.	c #5E96F4",
"4.	c #3E7AE4",
"5.	c #025ADC",
"6.	c #0256CC",
"7.	c #063A8C",
"8.	c #F6F2C4",
"9.	c #FEEEC4",
"0.	c #EADA94",
"a.	c #E2D68C",
"b.	c #DECA7C",
"c.	c #CABA54",
"d.	c #C6B244",
"e.	c #BEA624",
"f.	c #8A7614",
"g.	c #464A4C",
"h.	c #629AF4",
"i.	c #5A8EEC",
"j.	c #5686E4",
"k.	c #567EDC",
"l.	c #025EE4",
"m.	c #0252CC",
"n.	c #F2F2CC",
"o.	c #F2E2AC",
"p.	c #E6D68C",
"q.	c #D6C264",
"r.	c #927E24",
"s.	c #4E4204",
"t.	c #4E4E4C",
"u.	c #5A8AE4",
"v.	c #527ADC",
"w.	c #0252C4",
"x.	c #FEFAE4",
"y.	c #FEEEBC",
"z.	c #A69234",
"A.	c #665204",
"B.	c #524204",
"C.	c #4E72D4",
"D.	c #4A6ACC",
"E.	c #EECE44",
"F.	c #FEEA84",
"G.	c #F6E6B0",
"H.	c #E2CE84",
"I.	c #B29E44",
"J.	c #866E14",
"K.	c #4A3E04",
"L.	c #565244",
"M.	c #4A66CC",
"N.	c #4662C4",
"O.	c #025AD4",
"P.	c #F2CE44",
"Q.	c #F6D244",
"R.	c #FAE284",
"S.	c #FEEEB4",
"T.	c #F2E6AC",
"U.	c #C2AA4C",
"V.	c #927E0C",
"W.	c #7A660C",
"X.	c #66560C",
"Y.	c #3E3204",
"Z.	c #466AB4",
"`.	c #465EC4",
" +	c #4256BC",
".+	c #EECA3C",
"++	c #FAE684",
"@+	c #AA921C",
"#+	c #5E4E0C",
"$+	c #463604",
"%+	c #465AC4",
"&+	c #4252BC",
"*+	c #3E4EB4",
"=+	c #EACA3C",
"-+	c #E2C23C",
";+	c #DABA34",
">+	c #D2B634",
",+	c #BAA21C",
"'+	c #927E14",
")+	c #72620C",
"!+	c #3A46AC",
"~+	c #D2B22C",
"{+	c #C6AA2C",
"]+	c #A68E1C",
"^+	c #4E3E04",
"/+	c #E6C23C",
"(+	c #DEBE34",
"_+	c #D6B634",
":+	c #CEB22C",
"<+	c #BA9E24",
"[+	c #C2A61C",
"}+	c #6E5E0C",
"|+	c #CAAE2C",
"1+	c #B29A1C",
"2+	c #A68A1C",
"3+	c #B69E24",
"4+	c #AE961C",
"5+	c #BEA61C",
"6+	c #96821C",
"                                                                ",
"                                                                ",
"                        . . .                                   ",
"                      . + @ # . .                               ",
"                    . $ % + # & * . .                           ",
"                  . = - ; > @ # , * ' .                         ",
"                . ) ! ~ $ > { ] & * ^ .                         ",
"              . / / ( _ : % + < # [ } .     . . .               ",
"            . / / ( ) ! : | > { 1 2 2 .   . 3 4 5 . .           ",
"          . 6 7 / / ( ) _ - > 8 9 2 0 . . a b c d e f . .       ",
"          . g g 6 h / ) ! ~ i j k 2 } l m a 3 4 d e n o p .     ",
"          . g g g 6 q r s t u v k 2 0 w x a y z d A f o B .     ",
"          . g g q C D E F G H v k 0 I w J m y b 4 A f K L .     ",
"          . M q r E N O P Q H R 9 I I w J S a 3 z d T U V .     ",
"          . q D E W X Y Z `  ...+.@.I I w x #.3 z $.%.&.*..     ",
"          . =.-.;.>.,.'.).!.~.2 +.+.+.+.{.x m y ].^./.&.*..     ",
"            . (._.>.X :.<.[.}.|.1.+.+.2.2.3.S 4.5.6./.L 7..     ",
"          . 8.9._.0.a.b.c.d.e.f.g.+.h.3.i.j.k.l.5.m./.L 7..     ",
"        . n.9.9.9.o.p.b.q.<.r.s.t.3.3.u.j.k.v.l.5.w.U V .       ",
"      . x.9._.y.9.o.0.,.:.z.A.B.t.i.u.k.v.C.D.l.5.%.&..         ",
"    . E.F._._._.9.G.0.H.I.J.A.K.L.j.k.v.C.M.N.l.O.w..           ",
"    . P.Q.Q.R.S.9.9.T.U.V.W.X.K.Y.. Z.D.M.`. +5.^..             ",
"    . Q.Q.P.Q..+++8.:.@+r.W.#+s.$+. . . %+&+*+5..               ",
"    . Q.Q.P.=+-+;+>+,+@+'+)+#+K..       . . !+.                 ",
"    . P.E.=+-+;+~+{+{+]+f.)+^+.             .                   ",
"    . P./+(+_+:+{+<+[+]+f.}+.                                   ",
"    . -+(+>+|+[+<+1+,+2+W..                                     ",
"      . . {+}.3+1+4+5+6+.                                       ",
"          . . 4+4+4+@+.                                         ",
"              . . 4+.                                           ",
"                  .                                             ",
"                                                                "};
