/* XPM */
static char * cd_root_xpm[] = {
"24 24 6 1",
" 	c None",
".	c #808080",
"+	c #C0C000",
"@	c #FFFF00",
"#	c #E0E000",
"$	c #000000",
"                        ",
"             .....      ",
"            .+@@@@.     ",
"            .@@@@@.     ",
"           .+@@@@#$     ",
"           .@@@@@.$     ",
"          .+@@@@#$$     ",
"          .@@@@@.$      ",
"         .+@@@@#$$      ",
"         .@@@@@.$       ",
"        .+@@@@#$$       ",
"        .@@@@@.$        ",
"       .+@@@@#$$        ",
"       .@@@@@.$         ",
"      .+@@@@#$$         ",
"      .@@@@@.$          ",
"     .+@@@@#$$ ...      ",
"     .@@@@@.$ .#@#.     ",
"    .+@@@@#$$.#@@@#.    ",
"    .@@@@@.$ .@@@@@.$   ",
"   .+@@@@#$$ .#@@@#.$   ",
"   .@@@@@.$   .#@#.$$   ",
"    .....$$    ...$$    ",
"     $$$$$      $$$     "};
