/* XPM */
static char * cd_up_xpm[] = {
"24 24 5 1",
" 	c None",
".	c #808080",
"+	c #E0E000",
"@	c #FFFF00",
"#	c #000000",
"                        ",
"      ...      ...      ",
"     .+@+.    .+@+.     ",
"    .+@@@+.  .+@@@+.    ",
"    .@@@@@.# .@@@@@.#   ",
"    .+@@@+.# .+@@@+.#   ",
"     .+@+.##  .+@+.##   ",
"      ...##    ...##    ",
"       ### ..   ###     ",
"          .++.          ",
"         .+@@+.         ",
"        .+@@@@+.        ",
"       .+@@@@@@+.       ",
"      .+@@@@@@@@+.      ",
"     .+@@@@@@@@@@+.     ",
"    .+@@@@@@@@@@@@+.    ",
"   .+@@@@@@@@@@@@@@+.   ",
"  .+@@@@@@@@@@@@@@@@+.  ",
"  .@@@@@@@@@@@@@@@@@@.# ",
"  .....@@@@@@@@@@.....# ",
"   ###.@@@@@@@@@@.##### ",
"      .@@@@@@@@@@.#     ",
"      ............#     ",
"       ############     "};
