/* XPM */
static char * chardev_xpm[] = {
"32 32 70 1",
" 	c None",
".	c #000000",
"+	c #C2C2C2",
"@	c #FFFFFF",
"#	c #C1C1C1",
"$	c #EDEDED",
"%	c #E9E9E9",
"&	c #E6E6E6",
"*	c #E3E3E3",
"=	c #E0E0E0",
"-	c #DDDDDD",
";	c #DADADA",
">	c #D7D7D7",
",	c #D3D3D3",
"'	c #D0D0D0",
")	c #CDCDCD",
"!	c #CACACA",
"~	c #C7C7C7",
"{	c #C4C4C4",
"]	c #BDBDBD",
"^	c #BABABA",
"/	c #B7B7B7",
"(	c #808080",
"_	c #EAEAEA",
":	c #666664",
"<	c #4A4A4C",
"[	c #565656",
"}	c #B5B5B5",
"|	c #E8E8E8",
"1	c #1F1F1F",
"2	c #FDFDFA",
"3	c #B3B3B3",
"4	c #B0B0B0",
"5	c #252525",
"6	c #AEAEAE",
"7	c #E1E1E1",
"8	c #ACACAC",
"9	c #DFDFDF",
"0	c #AAAAAA",
"a	c #A7A7A7",
"b	c #A5A5A5",
"c	c #D8D8D8",
"d	c #A3A3A3",
"e	c #D6D6D6",
"f	c #A0A0A0",
"g	c #D4D4D4",
"h	c #9E9E9E",
"i	c #D1D1D1",
"j	c #CECECE",
"k	c #CBCBCB",
"l	c #C8C8C8",
"m	c #C5C5C5",
"n	c #BEBEBE",
"o	c #BBBBBB",
"p	c #B8B8B8",
"q	c #B2B2B2",
"r	c #AFAFAF",
"s	c #A8A8A8",
"t	c #A2A2A2",
"u	c #9F9F9F",
"v	c #9C9C9C",
"w	c #FF6161",
"x	c #A73634",
"y	c #AA9334",
"z	c #FFDF54",
"A	c #FF4949",
"B	c #8C1F18",
"C	c #E04725",
"D	c #FF3030",
"E	c #8C1513",
"                                ",
"                                ",
"                                ",
"      ....................      ",
"     .+@@@@@@@@@@@@@@@@@@#.     ",
"     .@$%&*=-;>,')!~{#]^/(.     ",
"     .@_:<<<<<<<<<<<<<<[}(.     ",
"     .@|<.1............23(.     ",
"     .@&<.@............24(.     ",
"     .@*<..@.5.........26(.     ",
"     .@7<.@..@@........28(.     ",
"     .@9<..............20(.     ",
"     .@-<..............2a(.     ",
"     .@;<..............2b(.     ",
"     .@c<..............2d(.     ",
"     .@e<..............2f(.     ",
"     .@g<222222222222222h(.     ",
"     .@ijklm+nop}qr8sbtuv(.     ",
"     .#(((((((((((((((((((.     ",
"      ....................      ",
"        ..                      ",
"       ..                       ",
"       ...                      ",
"        ..                      ",
"       ..  ...                  ",
"       ....wxyz                 ",
"        ..AABC.                 ",
"          .DEyz                 ",
"           ...                  ",
"                                ",
"                                ",
"                                "};
