/* XPM */
static char * folder_xpm[] = {
"32 32 111 2",
"  	c None",
". 	c #020204",
"+ 	c #FECE84",
"@ 	c #FEDEA4",
"# 	c #323234",
"$ 	c #A26E34",
"% 	c #FEAE5C",
"& 	c #D3D3D3",
"* 	c #CBCBCB",
"= 	c #B6763C",
"- 	c #EDEDED",
"; 	c #D5D5D5",
"> 	c #A66E3C",
", 	c #1D1907",
"' 	c #1B1808",
") 	c #EBEBEB",
"! 	c #FDFDFD",
"~ 	c #CDCDCD",
"{ 	c #F5F5F5",
"] 	c #000000",
"^ 	c #E3E3E3",
"/ 	c #C5C5C5",
"( 	c #514721",
"_ 	c #C27E3C",
": 	c #F6AA5C",
"< 	c #FEC67C",
"[ 	c #FED69C",
"} 	c #FBFBFB",
"| 	c #F3F3F3",
"1 	c #DBDBDB",
"2 	c #A26A34",
"3 	c #E6964C",
"4 	c #FEB25C",
"5 	c #FEBA6C",
"6 	c #FECA7C",
"7 	c #FECE8C",
"8 	c #F7F7F7",
"9 	c #2E2E1C",
"0 	c #CA8644",
"a 	c #E5E5E5",
"b 	c #EFEFEF",
"c 	c #F2F2F2",
"d 	c #ECECEC",
"e 	c #EEEEEE",
"f 	c #959595",
"g 	c #CE8A44",
"h 	c #E6E6E6",
"i 	c #E2E2E2",
"j 	c #D9D9D9",
"k 	c #D7D7D7",
"l 	c #818181",
"m 	c #ADADAD",
"n 	c #965E34",
"o 	c #FEAA5C",
"p 	c #E8E8E8",
"q 	c #E0E0E0",
"r 	c #DDDDDD",
"s 	c #DADADA",
"t 	c #CFCFCF",
"u 	c #C3C3C3",
"v 	c #B7B7B7",
"w 	c #A5A5A5",
"x 	c #939393",
"y 	c #E4E4E4",
"z 	c #DCDCDC",
"A 	c #D4D4D4",
"B 	c #D0D0D0",
"C 	c #C7C7C7",
"D 	c #BFBFBF",
"E 	c #ABABAB",
"F 	c #9B9B9B",
"G 	c #BDBDBD",
"H 	c #BBBBBB",
"I 	c #9D9D9D",
"J 	c #2E3234",
"K 	c #DFDFDF",
"L 	c #DEDEDE",
"M 	c #CECECE",
"N 	c #CACACA",
"O 	c #C4C4C4",
"P 	c #B5B5B5",
"Q 	c #C9C9C9",
"R 	c #AFAFAF",
"S 	c #A3A3A3",
"T 	c #D6D6D6",
"U 	c #C1C1C1",
"V 	c #BEBEBE",
"W 	c #D2D2D2",
"X 	c #C6C6C6",
"Y 	c #C0C0C0",
"Z 	c #B8B8B8",
"` 	c #8D8D8D",
" .	c #CCCCCC",
"..	c #BCBCBC",
"+.	c #B4B4B4",
"@.	c #B3B3B3",
"#.	c #A7A7A7",
"$.	c #B0B0B0",
"%.	c #9F9F9F",
"&.	c #8B8B8B",
"*.	c #B9B9B9",
"=.	c #858585",
"-.	c #A8A8A8",
";.	c #010103",
">.	c #7D7D7D",
",.	c #979797",
"'.	c #010102",
").	c #6B6B6B",
"!.	c #838383",
"~.	c #6D6D6D",
"{.	c #434343",
"            . . .                                               ",
"          . + @ @ . .                                           ",
"        # # $ % + @ @ . .                                       ",
"      . & * # # = % + @ @ . .                                   ",
"      . - - ; * # # > % + @ @ , '     . . .                     ",
"      . ) ! - - ; ~ # # > % + @ @ . . @ @ @ . .                 ",
"      . ) ! ! { - ) ; & ] ] > % + @ @ @ @ @ @ @ . .             ",
"      . ) ! ! ! ! { ) ^ ~ / ] ( _ : < [ @ @ @ @ @ @ .           ",
"      . ) ! ! ! ! ! } | ^ 1 ~ ] 2 3 4 5 < 6 7 @ @ @ .           ",
"      . ) ! ! ! ! ! 8 { | ) 1 9 # _ _ % # # 0 % + @ @ .         ",
"      . a ! ! ! 8 { b c d e a ; * # # _ # f # # g % + .         ",
"      . ^ ! ! } { { ) ) h ^ i j k ; & . l m f f # n o .         ",
"      . ^ ! } { | - b p h q r s ; t ~ * u v m w x # o .         ",
"      . 1 8 b | - ) y ^ z r ; A B ~ C C / D v E F # o .         ",
"      . 1 } b - ) a ^ i 1 j A B * C / / D G H E I J o .         ",
"      . ; | - ) a K L L s ; M N O / D u G v P E F J o .         ",
"      . ; | - a K r r ; & t Q / O D G G v P R S f J o .         ",
"      . ~ ) a a r k T A ~ * / U V H P v P R m S x J o .         ",
"      . ~ ) r r 1 ; W B * X Y Y Z v R P R m w I ` J o .         ",
"      . / ~ ^ r ; t  .O u O ..Z +.P R @.#.w w F ` # o .         ",
"      . F P u * & ~ C O G G P P $.R #.#.#.w %.F &.J o .         ",
"        . . F m H H D Y *.v @.$.m #.#.#.%.%.I f &.J o .         ",
"            . . =.E @.@.*.+.@.-.#.w w w w I F x &.J o .         ",
"                . . =.I E m E -.w %.I %.I F f ` &.J o .         ",
"                    . ;.>.F S S S I F I I ,.f ` &.J o .         ",
"                        . '.>.x F f ,.F f f f ` &.J o .         ",
"                            . . ).&.` f ,.f f ` &.J o . .       ",
"                                . . ).!.=.` f ` &.J o . . . .   ",
"                                    . . ).>.=.` &.# o . . . . . ",
"                                        . . ~.>.` J o . . . .   ",
"                                            . . {.. n . .       ",
"                                                . . .           "};
