/* XPM */
static char * fsv_icon_xpm[] = {
"64 64 64 1",
" 	c None",
".	c #030207",
"+	c #025604",
"@	c #580204",
"#	c #022E04",
"$	c #300204",
"%	c #021A04",
"&	c #020262",
"*	c #1C0204",
"=	c #028204",
"-	c #840204",
";	c #020E04",
">	c #02023D",
",	c #100204",
"'	c #026E04",
")	c #700204",
"!	c #020A04",
"~	c #024204",
"{	c #430204",
"]	c #02028C",
"^	c #029804",
"/	c #990204",
"(	c #020223",
"_	c #0A0204",
":	c #026404",
"<	c #640204",
"[	c #020604",
"}	c #023C04",
"|	c #3B0204",
"1	c #02027A",
"2	c #280204",
"3	c #029004",
"4	c #900204",
"5	c #022904",
"6	c #027C04",
"7	c #024F04",
"8	c #02A604",
"9	c #7A0204",
"0	c #4F0204",
"a	c #A60204",
"b	c #025E04",
"c	c #023604",
"d	c #022204",
"e	c #028A04",
"f	c #027604",
"g	c #024A04",
"h	c #029E04",
"i	c #026A04",
"j	c #02024E",
"k	c #0202A3",
"l	c #5E0204",
"m	c #360204",
"n	c #220204",
"o	c #8A0204",
"p	c #760204",
"q	c #4A0204",
"r	c #9E0204",
"s	c #6A0204",
"t	c #025A04",
"u	c #023204",
"v	c #028604",
"w	c #021204",
"x	c #027204",
"y	c #024604",
"                                                                ",
"                                 .;w[                           ",
"                              dt388883bd 57gy~}%                ",
"                            ;:8888888888x^88888~                ",
"                           %^888888888888888888}                ",
"                          ;38888888888888888888c                ",
"                          b88888888888888888888u                ",
"           ,{@<)@2.      !88888888^=v^8888888885                ",
"         $9aaaaaaar0.    58888888}.w5}+e88888885                ",
"       _<aaaaaaaaaaaon   ~888888x.;5}7t:e888888d                ",
"      .-aaaaaaaaaaaaal_  c888888h5  ;~:i'f66=ve%                ",
"     .)aaaaaaaaaaaaa<02  d88888888vb~5:}!                       ",
"     $aaaaaaaaaaaaa<0m.  !h888888888888=+5[                     ",
"     paaaaaaapl/aas0|.    '888888888888888^7!                   ",
"     raaaaaar)l{/)0|.     d^8888888888888888^7.                 ",
"    _aaaaaaar9p|*$m.       ce88888888888888888:.                ",
"    ,aaaaaaaa990            w~688888888888888887                ",
"    .aaaaaaaao9).             !5t=h888888888888^!               ",
"     4aaaaaaa/99*$mn      [![[[. [w}:vh888888888c               ",
"     saaaaaaaa4/aa9l      b^^^^^'    ;yi388888887               ",
"     |aaaaaaaaaaaa-p.     :888888;    dfx^888888b               ",
"    ,{aaaaaaaaaaaa49n     :888888}   .}f63888888y               ",
"  |4aaaaaaaaaaaaaa/9{     :888888hb##y+:fh8888885               ",
"  2aaaaaaaaaaaaaaaa9$     i88888888^vf6e8888888^[               ",
"  .raaaaaaaaaaaaa/)2      '88888888888888888888g                ",
"   paaaaaaaaaaa49).       x88888888888888888886[                ",
"   {aaaaaaaaaaa/99*       x8888888888888888886!                 ",
"   *a-@<aaaaaaaa99|       x8888863888888888^y.                  ",
"    _  *aaaaaaaa-9@       #yygg7d.u:eh8^eic!                    ",
"       ./aaaaaaa49p.                  .                         ",
"        saaaaaaa/99n                                            ",
"        |aaaaaaaa99|          .(..                              ",
"        ,aaaaaaaa-9l          .&&j>(..                          ",
"         oaaaaaaa49p.         (1&&&&&&j>(.                      ",
"         laaaaaaa/9p$2|2      j1&&&&&&&&&&j.(..                 ",
"         $aaaaaaaa99l@l0      &]kk]]1&&&&&&j&&&>((.             ",
"         _aaaaaaaa-)ll<).     1]kkkkkkk]1&&&&1&&&&&j>(.         ",
"          9aaaaaaa4sllsp*     &]kkkkkkkkkkk]]11&&&&&&&&(        ",
"         ,9aaaaaaar9o//9$     >kkkkkkkkkkkkkkk]1]1&&&&&&>.      ",
"        .0)aaaaaaaaaaaa9$     >kkkkkkkkkkkkkkk11kkkk]11&&&(     ",
"       .{lsaaaaaaaaaaaa-n     .>&]kkkkkkkkkkk]1]kkkkkkkk]]1>.   ",
"       |4raaaaaaaaaaaaa4,        (]kkkkkkkkkk]1]kkkkkkkkkkkkj   ",
"       $aaaaaaaaaaaaaaa/.        (]kkkkkkk]kk11]kkkkkkkkkkkk(   ",
"       _aaaaaaaaaaaaar90         .]kkkkkkk.1]11kkkkkkkkkkkkk.   ",
"        9aaaaaaaa/p02.            1kkkkkkk&11111]]kkkkkkkkk1    ",
"        0aaaa/)qn.                &kkkkkkk1111111kkkkkkkkkkj    ",
"        n/)qn.                    >kkkkkkk]11111]kkkkkk>.(j(    ",
"        ..                        >]kkkkkk]1111]kkkkkk&         ",
"                                  (]kkkkkk]1111kkkkkk].         ",
"                                  .]kkkkkk]111]kkkkkk(          ",
"                                  .1kkkkkk]11]kkkkkkj           ",
"                                   &kkkkkk]11kkkkkk1.           ",
"                                   jkkkkkk]1]kkkkk].            ",
"                                   >kkkkkk]]kkkkkk(             ",
"                                   .]kkkkkkkkkkkk&              ",
"                                   .]kkkkkkkkkkk].              ",
"                                    &kkkkkkkkkkk(               ",
"                                    >kkkkkkkkkk>                ",
"                                    (kkkkkkkkk&                 ",
"                                    .]kkkkkkk].                 ",
"                                     &kkkkkkk(                  ",
"                                      .>j1kkj                   ",
"                                          .(.                   ",
"                                                                "};
