/* XPM */
static char * mini_symlink_xpm[] = {
"16 16 6 1",
" 	c None",
".	c #808080",
"+	c #FFFFFF",
"@	c #000000",
"#	c #C0C0C0",
"$	c #E0E0E0",
"                ",
" .............  ",
" .++++++++++++@ ",
" .+++@@@@@@@++@ ",
" .+++@@@@@@@++@ ",
" .+++++#@@@@++@ ",
" .++++#@@@@@++@ ",
" .+++#@@@#@@++@ ",
" .++#@@@#+@@++@ ",
" .+$@@@#++@@++@ ",
" .+#@@#+++++++@ ",
" .+#@@$+++++++@ ",
" .++@@++++++++@ ",
" .++++++++++++@ ",
"  @@@@@@@@@@@@@ ",
"                "};
