/* XPM */
static char * mini_fifo_xpm[] = {
"16 16 10 1",
" 	c None",
".	c #000000",
"+	c #00A000",
"@	c #00B000",
"#	c #00B800",
"$	c #00C000",
"%	c #00D000",
"&	c #00E000",
"*	c #00FF00",
"=	c #FFFFFF",
"                ",
"  ............  ",
"  .+@#$%&*=*&.  ",
"  .+@#$%&*=*&.  ",
"  .+@#$%&*=*&.  ",
"  .+@#$%&*=*&.  ",
"   .++++@$@+.   ",
"   .+@$&*=*&.   ",
"   .+@$&*=*&.   ",
"   .+@$&*=*&.   ",
"   .+@$&*=*&.   ",
"   .+@$&*=*&.   ",
"   .+@$&*=*&.   ",
"   .+@$&*=*&.   ",
"   ..........   ",
"                "};
