/* XPM */
static char * mini_folder_open_xpm[] = {
"16 16 11 1",
" 	c None",
".	c #000000",
"+	c #FFA858",
"@	c #808080",
"#	c #FFDCA8",
"$	c #A0A0A4",
"%	c #303030",
"&	c #585858",
"*	c #C0C0C0",
"=	c #DCDCDC",
"-	c #FFFFFF",
"    ...         ",
"    .+@..       ",
"    .+#+@....   ",
"... .+######+.  ",
".$$%&+++#####+. ",
".@$$$@++++###+@.",
" %$$$$@@++++#+@.",
" .@$$**$@@++++@.",
"  %$*$****@@++@.",
"  .@****=*=$++@.",
"   %@=***=-#&+@.",
"    .%$==---$+@.",
"      .%*---#&@.",
"        .%*--@@.",
"          .%*-@.",
"            .%%."};
