/* XPM */
static char * mini_unknown_xpm[] = {
"16 16 6 1",
" 	c None",
".	c #800000",
"+	c #FFFFFF",
"@	c #C0C0C0",
"#	c #FF0000",
"$	c #000000",
"      ......    ",
"    ..++++@@.   ",
"   .@######@..  ",
"  .@########.$  ",
"  .###.$.###.$  ",
"  .###.$$###.$  ",
"  .$$$$ .###.$  ",
"       .###.$   ",
"      .###.$    ",
"      .###.$    ",
"      .###.$    ",
"      $$$$$     ",
"       ...@$    ",
"      .###.$    ",
"      .###.$    ",
"       $$$$     "};
