/* XPM */
static char * mini_regfile_xpm[] = {
"16 16 5 1",
" 	c None",
".	c #000000",
"+	c #FFFFC0",
"@	c #FFFFFF",
"#	c #C0C000",
"      ..        ",
"      .+...     ",
"     .+@+@+...  ",
"     .@@@@@+@+..",
"    .+@@@@+@+@+.",
"    .+@@@+@++++.",
"   .+@+@+@+@+++.",
"   .@+@+@+@+@+#.",
"  .@+@+@+@+@++. ",
" .++@+++@+++++. ",
".++++@+@+@+@++. ",
".#++++++@++++#. ",
" ..#+++++++++.  ",
"   ...#+++++#.  ",
"      ...#+#.   ",
"         ...    "};
