/* XPM */
static char * mini_socket_xpm[] = {
"16 16 7 1",
" 	c None",
".	c #404040",
"+	c #FF8000",
"@	c #E07000",
"#	c #C06000",
"$	c #000000",
"%	c #F07800",
"                ",
"                ",
"    ........    ",
"   .++++++++.   ",
"  .++++++++++.  ",
"  .@#$#%%#$#@.  ",
" .+##$#%%#$##+. ",
" .+##$#%%#$##+. ",
" .+@#$#%%#$#@+. ",
" .++++++++++++. ",
"  .++++##++++.  ",
"  .++++$$++++.  ",
"   .+++$$+++.   ",
"    ........    ",
"                ",
"                "};
