/* XPM */
static char * regfile_xpm[] = {
"32 32 69 1",
" 	c None",
".	c #020204",
"+	c #D2C694",
"@	c #FEFAD0",
"#	c #FEFED7",
"$	c #D2CE8E",
"%	c #CDBF90",
"&	c #FEFEE6",
"*	c #FEFEDE",
"=	c #E4E09C",
"-	c #BCA278",
";	c #FEFADE",
">	c #FEFAB2",
",	c #FEFEF4",
"'	c #FEFEED",
")	c #FEFED0",
"!	c #FAF6B2",
"~	c #F6F3E6",
"{	c #FEFEC8",
"]	c #FEFEBA",
"^	c #FAFABA",
"/	c #FAFAF4",
"(	c #FEFEC1",
"_	c #FEFEB2",
":	c #FEFEAB",
"<	c #FAEFB2",
"[	c #D9D25A",
"}	c #FEFEFC",
"|	c #FAF39C",
"1	c #A59E3D",
"2	c #FEFEAF",
"3	c #777627",
"4	c #CDBF8A",
"5	c #F6F39C",
"6	c #E0DD78",
"7	c #FEF69C",
"8	c #E8E89C",
"9	c #FEFAA1",
"0	c #EBE89C",
"a	c #FEFAC1",
"b	c #FAF3A4",
"c	c #E4E069",
"d	c #7A792A",
"e	c #BFBC53",
"f	c #D5C195",
"g	c #FEFEA4",
"h	c #FEFAA4",
"i	c #EBE886",
"j	c #84812E",
"k	c #EFE47F",
"l	c #FEFE9C",
"m	c #D5D269",
"n	c #BFB444",
"o	c #F6EB7F",
"p	c #FEFA95",
"q	c #C3B84C",
"r	c #E8E87F",
"s	c #F6F386",
"t	c #E0D278",
"u	c #FEFE95",
"v	c #E4D569",
"w	c #EFE895",
"x	c #DAD566",
"y	c #F6E886",
"z	c #FEFE8E",
"A	c #A2A236",
"B	c #FEEF95",
"C	c #1A1A04",
"D	c #161604",
"            ..                  ",
"            .+..                ",
"            .@#$...             ",
"           .%&**=$-....         ",
"           .@&*;##&#>%-....     ",
"          .%,'&&&**##*)!=$-...  ",
"          .~,'''&&*##)){]]^=$-..",
"          ./',''&&&*#){{(]__:<[.",
"         .%},,,,'&**#)){(]]_:|1.",
"         .;,}}},,'&*#){{(]__:23.",
"        .4,,}}},'&&*#)){((___5. ",
"        .&,',,,,'&**#){{(]_:>6. ",
"       .4,&',,,''&&*#))(((_]7[. ",
"       .*&&&''&&&**##{)(]]__81. ",
"      .@**&&&&&&**##)){((]__93. ",
"     .%###**&&&***#){{((]_:_0.  ",
"     .)))######*#)){)((]]_:a[.  ",
"    .4{{{))#####))){{(]]__:b1.  ",
"   .4{(({{))){){)){(((]__:_cd.  ",
"   .]](({({{{{{{{({(]]]_::>e.   ",
"  .f]_]]]((({{{(((]]]]_::gh1..  ",
" .%!::_]]](]]((((]]__::gggid....",
".jk:_:_____]]]_]_]__:::gllm.....",
" ..noh::_________:_::ggglpe.... ",
"   ..qrg_:::::::::ggggllgs1...  ",
"     ..nto>:::gggggllllulc3...  ",
"       ...nvw7:gggllluuus1...   ",
"          ...nxy:gluuzzp[3..    ",
"             ...nvrplupsA..     ",
"                ...nxrBx3.      ",
"                   CD.Ad.       ",
"                      ..        "};
