/* XPM */
static char * socket_xpm[] = {
"32 32 6 1",
" 	c None",
".	c #000000",
"+	c #808080",
"@	c #C06000",
"#	c #FF8000",
"$	c #E07000",
"                                ",
"                                ",
"                                ",
"                                ",
"        ................        ",
"       .++++++++++++++++.       ",
"      .+@##############@+.      ",
"     .+@################@+.     ",
"    .+@##################@+.    ",
"    .+####################+.    ",
"   .+@#$@@..@@$##$@@..@@$#@+.   ",
"   .+#$@@@..@@$##$@@..@@@$#+.   ",
"  .+@#$@@@..@@$##$@@..@@@$#@+.  ",
"  .+$#$@@@..@@$##$@@..@@@$#$+.  ",
"  .+##$@@@..@@$##$@@..@@@$##+.  ",
"  .+##$@@@..@@$##$@@..@@@$##+.  ",
"  .+##$@@@..@@$##$@@..@@@$##+.  ",
"  .+###$@@..@@$##$@@..@@$###+.  ",
"  .+$######################$+.  ",
"  .+@######################@+.  ",
"   .+######################+.   ",
"   .+@########@..@########@+.   ",
"    .+########....########+.    ",
"    .+@#######....#######@+.    ",
"     .+@######....######@+.     ",
"      .+@#####....#####@+.      ",
"       .++++++++++++++++.       ",
"        ................        ",
"                                ",
"                                ",
"                                ",
"                                "};
