/* XPM */
static char * symlink_xpm[] = {
"32 32 6 1",
" 	c None",
".	c #808080",
"+	c #FFFFFF",
"@	c #000000",
"#	c #E0E0E0",
"$	c #C0C0C0",
"                                ",
"                                ",
"                                ",
"                                ",
"   .........................    ",
"   .++++++++++++++++++++++++@   ",
"   .++++++++++++++++++++++++@   ",
"   .++++++++#@@@@@@@@@@@@+++@   ",
"   .++++++++@@@@@@@@@@@@@+++@   ",
"   .++++++++@@@@@@@@@@@@@+++@   ",
"   .++++++++#@@@@@@@@@@@@+++@   ",
"   .++++++++++++$@@@@@@@@+++@   ",
"   .+++++++++++$@@@@@@@@@+++@   ",
"   .++++++++++$@@@@@@@@@@+++@   ",
"   .+++++++++$@@@@@@@@@@@+++@   ",
"   .++++++++$@@@@@@@$@@@@+++@   ",
"   .+++++++$@@@@@@@$+@@@@+++@   ",
"   .++++++$@@@@@@@$++@@@@+++@   ",
"   .+++++$@@@@@@@$+++@@@@+++@   ",
"   .++++$@@@@@@@$++++#@@#+++@   ",
"   .+++$@@@@@@@$++++++++++++@   ",
"   .++#@@@@@@@$+++++++++++++@   ",
"   .++$@@@@@@$++++++++++++++@   ",
"   .++#@@@@@$+++++++++++++++@   ",
"   .+++$@@@$++++++++++++++++@   ",
"   .++++#$#+++++++++++++++++@   ",
"   .++++++++++++++++++++++++@   ",
"    @@@@@@@@@@@@@@@@@@@@@@@@@   ",
"                                ",
"                                ",
"                                ",
"                                "};
