/* XPM */
static char * unknown_xpm[] = {
"32 32 7 1",
" 	c None",
".	c #800000",
"+	c #CCCCCC",
"@	c #FFFFFF",
"#	c #FF0000",
"$	c #000000",
"%	c #666666",
"             .........          ",
"           ..+@+@@+@++..        ",
"         ..@+@+@+@@+@+++.       ",
"        .@@@@@@@@@@@+++++.      ",
"       .@###########@@++++.     ",
"      .@##############++++..    ",
"     .@################+++.$    ",
"     .@#################+..$    ",
"    .@##################...$    ",
"    .@######..$$########...$    ",
"    .@#####...$ $#######...$    ",
"    .@#####..$  %#######...$    ",
"    .@#####.$   %#######..$     ",
"    .@#####$    %#######.$      ",
"    .$$$$$$    .@######.$       ",
"              .@######.$        ",
"             .@######.$         ",
"            .@######..$         ",
"            .#######..$         ",
"           .@######...$         ",
"           .@######...$         ",
"           .@######...$         ",
"           .@######..$          ",
"           .@######.$           ",
"           .$$$$$$$$$           ",
"             .....+..$          ",
"            %#####...$          ",
"           %#######..$          ",
"           %#######..$          ",
"           %#######.$           ",
"            %#####.$            ",
"             $$$$$$             "};
